<?xml version="1.0" encoding="UTF-8"?>
<svg width="94px" height="27px" viewBox="0 0 94 27" version="1.1" xmlns="http://www.w3.org/2000/svg" xmlns:xlink="http://www.w3.org/1999/xlink">
    <!-- Generator: Sketch 53.2 (72643) - https://sketchapp.com -->
    <title>Group</title>
    <desc>Created with Sketch.</desc>
    <g id="Page-1" stroke="none" stroke-width="1" fill="none" fill-rule="evenodd">
        <g id="Desktop-HD" transform="translate(-161.000000, -3478.000000)" fill="#FFFFFF">
            <g id="Group" transform="translate(161.000000, 3478.000000)">
                <path d="M0,27 L0,2.89852941 C0,1.03235294 0.888211382,0.0397058824 2.70325203,0 L19,0 L19,4.68529412 L5.29065041,4.68529412 L5.29065041,10.4823529 L15.5243902,10.4823529 L15.5243902,12.2691176 C15.5630081,14.1352941 14.6361789,15.0485294 12.7439024,15.0485294 L5.29065041,15.0485294 L5.29065041,22.0367647 L19,22.0367647 L19,27 L0,27 Z M22,27 L22,16.1625709 C22.1512027,9.37429112 25.5910653,6 32.2817869,6 L33,6 L33,11.4782609 L31.2989691,11.4782609 C28.5017182,11.4782609 27.1030928,13.026465 27.1030928,16.0831758 L27.1030928,27 L22,27 Z M42.5215054,23 C45.3064516,23 47,21.1666667 47,18.0416667 L47,16 C45.8333333,16.5416667 44.4784946,17 43.0107527,17.3333333 C41.016129,17.75 40,18.7916667 40,20.4166667 C40.1129032,22.1666667 40.9408602,23 42.5215054,23 Z M43.7286996,10.1763124 C41.9372197,10.1763124 40.9461883,10.6360899 40.6793722,11.5939598 L35.6098655,11.5939598 C36.2197309,7.83911006 38.8497758,6 43.5,6 C49.0650224,6 51.8856502,7.83911006 52,11.5939598 L52,18.4906225 C52,24.0845822 48.6457399,26.5750438 43.1950673,26.9581917 C38.3542601,27.3413396 35,25.0807669 35,20.5979361 C35.1143498,15.7319574 38.6210762,14.4292544 43.7286996,13.9311621 C45.9013453,13.6629586 47.0067265,13.0116071 47.0067265,11.9004781 C46.8923767,10.7510343 45.8251121,10.1763124 43.7286996,10.1763124 Z M59.1153846,2.62932464 L59.1153846,8.82982154 C60.4230769,6.67142072 62.3461538,5.61184214 64.8846154,5.61184214 C70.3076923,5.80806039 73,9.41847631 73,16.4823335 C73,23.3892162 69.8461538,26.8819011 63.5384615,26.9996321 C57.1923077,27.0388757 54,23.9386273 54,17.6988867 L54,0 L56.5769231,0 C58.2692308,0 59.1153846,0.90260398 59.1153846,2.62932464 Z M63.5204034,10 C60.6406628,10 59.160796,11.9169329 59.0008104,15.827476 C58.960814,19.9297125 60.4006844,22 63.4404106,22 C66.4801369,22 68,19.9297125 68,15.827476 C67.8800108,11.9169329 66.4001441,10 63.5204034,10 Z M84.4802495,6 C90.8004158,6 94,9.48087432 94,16.5191257 C94,23.4808743 90.8004158,27 84.4802495,27 C78.1600832,27 75,23.4808743 75,16.5191257 C75,9.48087432 78.1600832,6 84.4802495,6 Z M85.057971,10 C82.352657,10 81,12.0319489 81,16.057508 C81.0386473,20.0063898 82.3913043,22 85.0193237,22 C87.647343,22 88.9613527,19.9297125 89,15.9041534 C89,11.9552716 87.6859903,10 85.057971,10 Z" id="Erabo" fill-rule="nonzero"></path>
                <path d="M69,0 L92.8901602,0 C93.4393593,3.33333333 91.9290618,5 88.3592677,5 C84.7894737,5 78.3363844,5 69,5 L69,0 Z" id="Rectangle-Copy"></path>
            </g>
        </g>
    </g>
</svg>