<?xml version="1.0" encoding="UTF-8"?>
<svg width="845px" height="242px" viewBox="0 0 845 242" version="1.1" xmlns="http://www.w3.org/2000/svg" xmlns:xlink="http://www.w3.org/1999/xlink">
    <!-- Generator: Sketch 53.2 (72643) - https://sketchapp.com -->
    <title>Group</title>
    <desc>Created with Sketch.</desc>
    <g id="Page-1" stroke="none" stroke-width="1" fill="none" fill-rule="evenodd">
        <g id="Desktop-Copy-4" transform="translate(-163.000000, -126.000000)" fill="#F8333C">
            <g id="Group" transform="translate(163.000000, 126.000000)">
                <path d="M0,237.855491 L0,28.2124277 C0,11.9797688 7.95864046,3.34537572 24.2219492,3 L170.2457,3 L170.2457,43.7543353 L47.4058149,43.7543353 L47.4058149,94.1791908 L139.103194,94.1791908 L139.103194,109.721098 C139.449222,125.953757 131.144554,133.897399 114.189189,133.897399 L47.4058149,133.897399 L47.4058149,194.683526 L170.2457,194.683526 L170.2457,237.855491 L0,237.855491 Z M193.775594,237.855491 L193.775594,143.567919 C195.159705,84.5086705 226.648239,55.1517341 287.895168,55.1517341 L294.469697,55.1517341 L294.469697,102.813584 L278.898444,102.813584 C253.292383,102.813584 240.489353,116.283237 240.489353,142.877168 L240.489353,237.855491 L193.775594,237.855491 Z M380.284603,204.008671 C405.890663,204.008671 421.461916,188.812139 421.461916,162.90896 L421.461916,145.985549 C410.735053,150.475434 398.278051,154.274566 384.782965,157.037572 C366.443489,160.491329 357.100737,169.125723 357.100737,182.595376 C358.138821,197.101156 365.751433,204.008671 380.284603,204.008671 Z M391.011466,90.0346821 C374.748157,90.0346821 365.751433,94.1791908 363.329238,102.813584 L317.307535,102.813584 C322.84398,68.966763 346.719902,52.3887283 388.935299,52.3887283 C439.455364,52.3887283 465.061425,68.966763 466.099509,102.813584 L466.099509,164.981214 C466.099509,215.406069 435.649058,237.855491 386.167076,241.309249 C342.22154,244.763006 311.771089,224.385838 311.771089,183.976879 C312.809173,140.114162 344.643735,128.371387 391.011466,123.881503 C410.735053,121.463873 420.769861,115.592486 420.769861,105.57659 C419.731777,95.2153179 410.042998,90.0346821 391.011466,90.0346821 Z M534.266994,26.1401734 L534.266994,80.7095376 C546.031941,61.7138728 563.333333,52.3887283 586.171171,52.3887283 C634.961097,54.1156069 659.183047,85.8901734 659.183047,148.057803 C659.183047,208.843931 630.808763,239.58237 574.060197,240.618497 C516.965602,240.963873 488.245291,213.679191 488.245291,158.764451 L488.245291,3 L511.429156,3 C526.654382,3 534.266994,10.9436416 534.266994,26.1401734 Z M573.368141,93.4884393 C548.454136,93.4884393 535.651106,110.757225 534.266994,145.985549 C533.920966,182.940751 546.377969,201.59104 572.676085,201.59104 C598.974201,201.59104 612.12326,182.940751 612.12326,145.985549 C611.085176,110.757225 598.282146,93.4884393 573.368141,93.4884393 Z M761.607289,52.3887283 C816.971744,52.3887283 845,83.8179191 845,147.367052 C845,210.225434 816.971744,242 761.607289,242 C706.242834,242 678.560606,210.225434 678.560606,147.367052 C678.560606,83.8179191 706.242834,52.3887283 761.607289,52.3887283 Z M761.607289,92.7976879 C737.38534,92.7976879 725.274365,111.102601 725.274365,147.367052 C725.620393,182.940751 737.731368,200.900289 761.261261,200.900289 C784.791155,200.900289 796.556102,182.25 796.902129,145.985549 C796.902129,110.41185 785.137183,92.7976879 761.607289,92.7976879 Z" id="Erabo" fill-rule="nonzero"></path>
                <path d="M617,0 L839.974828,0 C845.100686,25.3333333 831.004577,38 797.686499,38 C764.368421,38 704.139588,38 617,38 L617,0 Z" id="Rectangle-Copy"></path>
            </g>
        </g>
    </g>
</svg>